<?xml version="1.0" standalone="no"?>
<!DOCTYPE svg PUBLIC "-//W3C//DTD SVG 20010904//EN"
 "http://www.w3.org/TR/2001/REC-SVG-20010904/DTD/svg10.dtd">
<svg version="1.0" xmlns="http://www.w3.org/2000/svg"
 width="128.000000pt" height="128.000000pt" viewBox="0 0 128.000000 128.000000"
 preserveAspectRatio="xMidYMid meet">
<metadata>
Created by potrace 1.10, written by Peter Selinger 2001-2011
</metadata>
<g transform="translate(0.000000,128.000000) scale(0.100000,-0.100000)"
fill="#f7f4f4" stroke="none">
<path d="M605 1255 c-5 -2 -22 -6 -37 -9 -15 -4 -44 -20 -63 -38 -61 -53 -69
-78 -75 -228 l-5 -135 -32 -3 c-19 -2 -33 1 -33 7 0 6 -7 11 -15 11 -11 0 -15
-12 -15 -50 0 -36 4 -50 14 -50 8 0 16 7 20 15 3 8 13 14 23 14 17 -1 17 -2 0
-6 -17 -4 -18 -17 -15 -186 3 -156 6 -188 23 -222 28 -56 90 -112 146 -132
l49 -18 0 -48 c0 -41 3 -48 16 -43 9 3 19 6 22 6 4 0 0 5 -8 10 -11 7 -5 10
23 10 21 0 36 -4 32 -9 -3 -5 0 -13 6 -16 6 -4 13 2 16 14 3 12 7 21 10 21 20
0 127 -37 168 -59 l50 -26 -143 -3 c-78 -1 -206 -1 -285 0 l-142 3 65 32 c36
18 74 33 85 33 11 1 34 7 50 16 30 14 29 14 -22 10 -90 -8 -193 -65 -193 -107
0 -9 -6 -19 -12 -22 -29 -10 259 -19 428 -14 128 4 185 2 193 -6 8 -8 11 -7
11 6 0 9 -4 17 -10 17 -5 0 -10 8 -10 18 0 41 -95 96 -191 110 -76 10 -73 33
11 75 71 35 122 92 140 155 5 20 10 112 10 203 l0 167 -25 6 c-15 4 -25 14
-25 24 0 12 9 18 25 20 16 1 25 -3 25 -13 0 -8 -8 -15 -17 -16 -14 0 -13 -2 5
-9 12 -5 22 -14 22 -20 0 -5 7 -10 15 -10 11 0 15 12 15 50 0 38 -4 50 -15 50
-8 0 -15 -5 -15 -11 0 -6 -14 -9 -32 -7 l-33 3 -5 140 c-5 153 -12 171 -80
229 -42 35 -123 55 -165 41z m103 -26 c6 -1 12 -6 12 -11 0 -5 5 -6 10 -3 6 3
10 -2 10 -11 0 -10 3 -15 6 -11 10 10 73 -63 67 -78 -3 -8 -14 -13 -26 -12
-32 3 -33 -47 -1 -72 30 -23 30 -31 2 -28 -18 2 -23 -4 -24 -26 -3 -24 -1 -26
12 -12 17 17 24 18 39 7 15 -11 18 -42 4 -58 -9 -11 -9 -14 0 -14 7 0 9 -5 6
-10 -4 -6 -11 -8 -16 -4 -6 3 -19 -2 -30 -12 -17 -16 -22 -16 -29 -4 -7 10
-10 11 -10 3 0 -17 -18 -16 -36 2 -14 13 -14 17 -1 30 17 17 28 10 19 -13 -5
-14 -4 -15 10 -2 14 13 14 17 -4 32 -19 16 -19 19 -4 33 9 9 16 13 16 9 0 -4
3 -5 6 -1 4 3 -2 14 -12 24 -16 16 -17 16 -12 1 7 -18 -18 -46 -30 -33 -4 4
-1 10 7 13 11 4 11 6 0 13 -10 6 -8 12 9 27 17 15 19 22 10 26 -10 5 -10 7 0
12 6 3 12 10 12 16 0 6 -6 5 -15 -2 -9 -7 -19 -10 -22 -6 -4 4 -1 11 6 15 11
7 11 10 0 15 -12 5 -12 7 0 12 11 5 11 8 1 14 -11 7 -10 11 2 24 9 8 18 12 22
9 3 -4 6 -1 6 5 0 5 -6 13 -12 15 -10 4 -10 8 -2 14 9 6 7 12 -4 23 -14 13
-15 12 -9 -2 6 -18 -19 -46 -31 -33 -4 4 -1 10 7 13 11 4 11 6 0 13 -12 8 -11
11 1 19 16 10 13 11 -31 14 -24 2 -25 0 -25 -49 1 -45 3 -50 23 -48 11 1 26
-4 33 -12 9 -11 5 -13 -24 -11 -19 2 -42 10 -50 19 -9 8 -21 17 -28 20 -7 2
-10 8 -6 12 4 4 14 2 23 -5 10 -8 15 -9 15 -1 0 6 -4 11 -10 11 -5 0 -10 5
-10 11 0 5 5 7 10 4 15 -9 12 4 -4 21 -10 10 -17 11 -21 3 -4 -6 -14 -8 -22
-5 -8 3 -12 2 -8 -3 3 -5 -7 -18 -21 -29 -29 -20 -25 -47 5 -37 26 8 46 -19
26 -35 -9 -7 -19 -10 -22 -6 -4 4 -1 11 6 16 10 6 7 8 -10 7 -16 -1 -25 -8
-25 -18 0 -11 6 -15 16 -11 13 5 13 3 -1 -14 -19 -22 -21 -123 -2 -145 9 -11
7 -19 -7 -36 -22 -28 -35 -29 -46 -5 -11 25 -14 78 -3 61 5 -8 9 -9 9 -3 0 6
-3 14 -7 18 -4 4 -8 21 -9 38 -1 21 1 26 7 17 6 -9 9 -10 9 -2 0 6 -4 15 -10
18 -5 3 -10 11 -10 16 0 6 5 7 12 3 7 -4 8 -3 4 5 -12 20 -14 61 -3 54 7 -4 8
0 4 11 -5 13 -3 17 7 13 10 -4 13 -1 10 8 -7 16 62 89 76 80 5 -3 10 -2 10 4
0 18 57 22 138 10z m-51 -26 c-9 -9 -20 -13 -24 -9 -4 4 -1 11 7 16 25 16 35
11 17 -7z m-80 -30 c-9 -9 -20 -13 -24 -9 -4 4 -1 11 7 16 25 16 35 11 17 -7z
m80 0 c-9 -9 -20 -13 -24 -9 -4 4 -1 11 7 16 25 16 35 11 17 -7z m-83 -38 c20
-15 32 -33 31 -45 -2 -25 -22 -47 -32 -35 -5 4 -2 10 6 13 11 4 11 6 0 14 -11
8 -11 11 -1 15 20 8 -28 44 -50 37 -10 -3 -18 -1 -18 4 0 9 11 17 28 21 2 1
18 -10 36 -24z m104 13 c9 -9 12 -9 12 0 0 7 5 12 12 12 27 0 -13 -25 -42 -26
-30 -2 -41 10 -17 19 19 8 22 8 35 -5z m147 -47 c-3 -5 -1 -12 3 -15 10 -6 9
-36 -1 -53 -4 -6 -3 -14 2 -18 12 -7 3 -35 -11 -35 -6 0 -7 8 -4 17 5 11 -2
24 -20 40 -15 13 -24 26 -21 29 3 4 13 -1 22 -10 21 -20 21 -20 21 3 0 11 -3
18 -7 15 -11 -6 -39 7 -39 18 0 5 9 7 19 3 11 -3 22 -1 26 5 3 5 8 10 11 10 3
0 3 -4 -1 -9z m-185 -16 c14 -16 10 -18 -14 -9 -9 3 -16 10 -16 15 0 14 16 11
30 -6z m30 5 c0 -5 -4 -10 -10 -10 -5 0 -10 5 -10 10 0 6 5 10 10 10 6 0 10
-4 10 -10z m-108 -23 c-8 -10 -6 -16 10 -26 15 -9 18 -15 9 -24 -13 -13 -71
-19 -71 -7 0 12 28 20 48 13 15 -6 15 -5 -1 12 -16 15 -20 16 -27 4 -5 -7 -12
-10 -16 -7 -3 4 0 14 9 22 8 8 17 12 21 9 3 -4 6 -1 6 5 0 7 5 12 11 12 8 0 8
-4 1 -13z m115 -4 c-9 -9 -20 -13 -24 -9 -4 4 -1 11 7 16 25 16 35 11 17 -7z
m-51 -18 c-3 -29 -22 -52 -33 -41 -4 4 -1 11 6 15 11 7 11 9 0 13 -11 4 -10 8
1 21 21 23 29 21 26 -8z m34 -10 c14 -16 10 -18 -14 -9 -9 3 -16 10 -16 15 0
14 16 11 30 -6z m39 1 c9 -10 8 -16 -4 -26 -9 -7 -19 -10 -22 -6 -4 4 -1 11 7
16 10 7 11 10 3 10 -7 0 -13 5 -13 10 0 14 16 12 29 -4z m-49 -26 c0 -5 -4
-10 -10 -10 -5 0 -10 5 -10 10 0 6 5 10 10 10 6 0 10 -4 10 -10z m-91 -24 c14
-17 -9 -39 -33 -30 -24 9 -19 26 7 20 12 -3 16 -3 10 0 -15 6 -17 24 -4 24 5
0 14 -6 20 -14z m41 -1 c14 -16 10 -18 -14 -9 -9 3 -16 10 -16 15 0 14 16 11
30 -6z m81 -2 c8 -8 2 -10 -23 -8 -48 4 -48 4 -48 14 0 12 57 8 71 -6z m109 7
c0 -5 -4 -10 -10 -10 -5 0 -10 5 -10 10 0 6 5 10 10 10 6 0 10 -4 10 -10z
m-197 -32 c4 -10 8 -9 16 2 5 8 13 11 17 7 4 -4 -1 -13 -11 -21 -16 -11 -21
-11 -32 0 -15 15 -17 24 -4 24 5 0 12 -6 14 -12z m93 -11 c23 -21 24 -25 9
-37 -8 -7 -19 -9 -23 -5 -4 4 -1 10 6 12 6 3 12 10 12 16 0 5 -3 8 -6 4 -6 -6
-34 16 -34 27 0 11 11 6 36 -17z m-141 -19 l25 -22 -25 -24 c-15 -13 -29 -21
-32 -18 -4 3 3 14 15 24 21 18 21 19 1 32 -17 13 -26 30 -14 30 3 0 16 -10 30
-22z m37 5 c15 -14 21 -15 27 -4 5 8 11 9 15 3 3 -5 -1 -16 -10 -23 -13 -10
-17 -10 -25 2 -5 8 -9 10 -9 6 0 -5 -7 -2 -15 7 -29 28 -13 37 17 9z m77 3
c10 -11 7 -17 -10 -30 -13 -8 -19 -19 -15 -23 4 -4 11 -1 16 7 8 13 12 12 30
-6 17 -16 18 -21 6 -21 -9 0 -16 4 -16 9 0 4 -5 8 -11 8 -5 0 -7 -5 -4 -10 9
-14 -16 -8 -33 8 -12 11 -11 16 8 32 13 11 18 20 12 20 -7 0 -12 5 -12 10 0
14 16 12 29 -4z m-53 -57 c13 -15 14 -20 4 -17 -16 3 -40 23 -40 32 0 13 18 5
36 -15z m49 -29 c102 0 185 -3 185 -7 0 -5 3 -18 6 -29 5 -19 2 -21 -21 -16
-20 3 -25 9 -22 23 6 23 -8 25 -17 3 -7 -18 -7 -55 0 -38 7 15 54 5 54 -12 0
-11 -36 -14 -200 -14 -190 0 -200 1 -200 19 0 11 -3 26 -6 34 -3 8 1 21 9 28
7 8 12 21 10 29 -3 10 0 9 7 -2 10 -16 31 -18 195 -18z m-80 20 c3 -5 -1 -10
-9 -10 -9 0 -16 5 -16 10 0 6 4 10 9 10 6 0 13 -4 16 -10z m235 0 c0 -5 -4
-10 -10 -10 -5 0 -10 5 -10 10 0 6 5 10 10 10 6 0 10 -4 10 -10z m-450 -45 c0
-8 -4 -15 -10 -15 -5 0 -10 7 -10 15 0 8 5 15 10 15 6 0 10 -7 10 -15z m580
-6 c0 -11 -4 -17 -10 -14 -5 3 -10 13 -10 21 0 8 5 14 10 14 6 0 10 -9 10 -21z
m-540 -4 c0 -8 -7 -15 -15 -15 -8 0 -15 7 -15 15 0 8 7 15 15 15 8 0 15 -7 15
-15z m23 0 c4 -8 2 -17 -3 -20 -6 -4 -10 3 -10 14 0 25 6 27 13 6z m1 -61 c10
-25 7 -74 -4 -74 -12 0 -13 -87 -1 -94 5 -3 11 -33 13 -66 3 -48 10 -67 34
-97 85 -104 250 -111 338 -13 46 51 56 92 56 238 0 74 4 122 10 122 6 0 10
-62 10 -167 0 -181 -10 -223 -62 -275 -12 -12 -23 -27 -23 -33 -1 -5 -6 -9
-12 -8 -7 2 -28 -4 -47 -12 -19 -8 -64 -16 -98 -17 l-63 -1 65 -7 c62 -5 64
-6 28 -14 -46 -10 -156 24 -184 57 -19 21 -19 21 1 7 11 -8 3 4 -17 25 -61 66
-68 93 -68 280 0 150 7 193 24 149z m414 -26 c1 -13 4 -49 8 -80 l6 -58 -211
0 -211 0 0 45 c0 39 3 45 21 45 14 0 18 4 12 13 -4 6 -9 22 -11 35 l-3 22 195
0 194 0 0 -22z m-6 -198 c-6 -85 -78 -158 -167 -167 -111 -13 -224 84 -210
182 2 17 4 30 4 30 1 0 85 0 188 0 l188 0 -3 -45z m-67 -260 c-3 -5 -12 -10
-18 -10 -7 0 -6 4 3 10 19 12 23 12 15 0z m-94 -77 c8 -21 5 -23 -27 -23 -29
0 -35 3 -30 16 3 9 6 20 6 26 0 19 43 3 51 -19z m166 -135 c-17 -10 -390 -9
-407 1 -9 6 63 9 202 8 119 -1 211 -5 205 -9z"/>
<path d="M767 1133 c-3 -5 6 -9 20 -10 19 -1 22 1 12 8 -17 11 -26 11 -32 2z"/>
<path d="M474 987 c-8 -9 -7 -16 1 -24 10 -9 13 -6 13 13 0 13 -1 24 -2 24 0
-1 -6 -6 -12 -13z"/>
<path d="M778 943 c-8 -10 -15 -28 -16 -40 -1 -22 0 -22 30 6 17 16 28 34 24
40 -10 16 -21 14 -38 -6z m32 1 c0 -3 -7 -12 -15 -21 -20 -19 -32 -10 -14 11
14 15 29 21 29 10z"/>
<path d="M472 914 c-7 -8 -8 -14 -3 -14 10 0 25 19 20 25 -2 1 -10 -3 -17 -11z"/>
<path d="M473 815 c-6 -14 -7 -23 -2 -19 5 3 9 -2 9 -10 0 -20 16 -21 23 -2 6
16 -2 56 -12 56 -3 0 -11 -11 -18 -25z"/>
<path d="M737 823 c-11 -10 -8 -43 3 -43 6 0 10 11 10 25 0 26 -2 29 -13 18z"/>
<path d="M572 800 c0 -14 2 -19 5 -12 2 6 2 18 0 25 -3 6 -5 1 -5 -13z"/>
<path d="M517 279 c7 -7 15 -10 18 -7 3 3 -2 9 -12 12 -14 6 -15 5 -6 -5z"/>
<path d="M613 683 l97 -4 2 -37 c1 -37 1 -37 5 -4 3 20 10 32 19 32 8 0 21
-15 29 -32 l14 -33 1 28 c0 20 5 27 20 27 19 0 24 -10 21 -37 -1 -7 3 -13 9
-13 7 0 10 14 8 33 l-3 32 -70 6 c-38 4 -110 6 -160 6 l-90 -1 98 -3z"/>
<path d="M480 671 c-12 -4 -14 -14 -9 -36 6 -28 7 -28 9 -5 l2 25 8 -25 7 -25
8 28 c8 32 -2 48 -25 38z"/>
<path d="M560 670 c-8 -37 -8 -50 0 -55 15 -9 23 21 11 42 -6 10 -11 16 -11
13z"/>
</g>
</svg>
